# xmcd
#
# Track frame offsets:
#	183
#	13245
#	27265
#	48113
#	65240
#	75330
#	92610
#	103653
#	118078
#	130258
#	142973
#	159803
#
# Disc length: 2377 seconds
#
# Revision: 2
# Processed by: cddbd v1.5.2PL0 Copyright (c) Steve Scherf et al.
# Submitted via: audiograbber 1.83.01
#
DISCID=9309470c
DTITLE=Rusty Nugget - Too Rock For Country
DYEAR=1990
DGENRE=Country
TTITLE0=Hello Mary Lou
TTITLE1=Too Rock For Country
TTITLE2=Midnight Special
TTITLE3=Brand New Tennessee Waltz
TTITLE4=Panhandle Rag
TTITLE5=She Thinks I Still Care
TTITLE6=Your're Still On My Mind
TTITLE7=Propinquity
TTITLE8=Lucille
TTITLE9=Cracking Peanuts
TTITLE10=Take Me Back To Tulsa
TTITLE11=Knights Of The Road
EXTD=
EXTT0=
EXTT1=
EXTT2=
EXTT3=
EXTT4=
EXTT5=
EXTT6=
EXTT7=
EXTT8=
EXTT9=
EXTT10=
EXTT11=
PLAYORDER=
